HIERARCHY
ROOT hip
{
  OFFSET 0 0 0
  CHANNELS 6 Xposition Yposition Zposition Zrotation Yrotation Xrotation
  JOINT abdomen
  {
    OFFSET 0 20.6881 -0.73152
    CHANNELS 3 Zrotation Xrotation Yrotation
    JOINT chest
    {
      OFFSET 0 11.7043 -0.48768
      CHANNELS 3 Zrotation Xrotation Yrotation
      JOINT neck
      {
        OFFSET 0 22.1894 -2.19456
        CHANNELS 3 Zrotation Xrotation Yrotation
        JOINT head
        {
          OFFSET -0.24384 7.07133 1.2192
          CHANNELS 3 Zrotation Xrotation Yrotation
          JOINT leftEye
          {
            OFFSET 4.14528 8.04674 8.04672
            CHANNELS 3 Zrotation Xrotation Yrotation
            End Site
            {
              OFFSET 1 0 0
            }
          }
          JOINT rightEye
          {
            OFFSET -3.6576 8.04674 8.04672
            CHANNELS 3 Zrotation Xrotation Yrotation
            End Site
            {
              OFFSET 1 0 0
            }
          }
        }
      }
      JOINT rCollar
      {
        OFFSET -2.68224 19.2634 -4.8768
        CHANNELS 3 Zrotation Xrotation Yrotation
        JOINT rShldr
        {
          OFFSET -8.77824 -1.95073 1.46304
          CHANNELS 3 Zrotation Xrotation Yrotation
          JOINT rForeArm
          {
            OFFSET -28.1742 -1.7115 0.48768
            CHANNELS 3 Zrotation Xrotation Yrotation
            JOINT rHand
            {
              OFFSET -22.5879 0.773209 7.07136
              CHANNELS 3 Zrotation Xrotation Yrotation
              JOINT rThumb1
              {
                OFFSET -1.2192 -0.487915 3.41376
                CHANNELS 3 Zrotation Xrotation Yrotation
                JOINT rThumb2
                {
                  OFFSET -3.37035 -0.52449 3.41376
                  CHANNELS 3 Zrotation Xrotation Yrotation
                  End Site
                  {
                    OFFSET -1.78271 -1.18214 1.43049
                  }
                }
              }
              JOINT rIndex1
              {
                OFFSET -7.75947 0.938293 5.60832
                CHANNELS 3 Zrotation Xrotation Yrotation
                JOINT rIndex2
                {
                  OFFSET -2.54057 -0.884171 1.56538
                  CHANNELS 3 Zrotation Xrotation Yrotation
                  End Site
                  {
                    OFFSET -1.62519 -0.234802 1.16502
                  }
                }
              }
              JOINT rMid1
              {
                OFFSET -8.24714 1.18213 3.41376
                CHANNELS 3 Zrotation Xrotation Yrotation
                JOINT rMid2
                {
                  OFFSET -3.10165 -0.590103 1.0647
                  CHANNELS 3 Zrotation Xrotation Yrotation
                  End Site
                  {
                    OFFSET -2.48547 -0.328903 0.83742
                  }
                }
              }
              JOINT rRing1
              {
                OFFSET -8.82822 0.546677 1.51678
                CHANNELS 3 Zrotation Xrotation Yrotation
                JOINT rRing2
                {
                  OFFSET -2.60934 -0.819778 -0.0198488
                  CHANNELS 3 Zrotation Xrotation Yrotation
                  End Site
                  {
                    OFFSET -2.33842 -0.294052 0.168128
                  }
                }
              }
              JOINT rPinky1
              {
                OFFSET -8.27202 -0.0477905 -0.4584
                CHANNELS 3 Zrotation Xrotation Yrotation
                JOINT rPinky2
                {
                  OFFSET -1.82734 -0.647385 -0.700984
                  CHANNELS 3 Zrotation Xrotation Yrotation
                  End Site
                  {
                    OFFSET -1.69225 -0.51767 -0.607171
                  }
                }
              }
            }
          }
        }
      }
      JOINT lCollar
      {
        OFFSET 2.68224 19.2634 -4.8768
        CHANNELS 3 Zrotation Xrotation Yrotation
        JOINT lShldr
        {
          OFFSET 8.77824 -1.95073 1.46304
          CHANNELS 3 Zrotation Xrotation Yrotation
          JOINT lForeArm
          {
            OFFSET 28.1742 -1.7115 0.48768
            CHANNELS 3 Zrotation Xrotation Yrotation
            JOINT lHand
            {
              OFFSET 22.5879 0.773209 7.07136
              CHANNELS 3 Zrotation Xrotation Yrotation
              JOINT lThumb1
              {
                OFFSET 1.2192 -0.487915 3.41376
                CHANNELS 3 Zrotation Xrotation Yrotation
                JOINT lThumb2
                {
                  OFFSET 3.37035 -0.52449 3.41376
                  CHANNELS 3 Zrotation Xrotation Yrotation
                  End Site
                  {
                    OFFSET 1.78271 -1.18214 1.43049
                  }
                }
              }
              JOINT lIndex1
              {
                OFFSET 7.75947 0.938293 5.60832
                CHANNELS 3 Zrotation Xrotation Yrotation
                JOINT lIndex2
                {
                  OFFSET 2.54057 -0.884171 1.56538
                  CHANNELS 3 Zrotation Xrotation Yrotation
                  End Site
                  {
                    OFFSET 1.62519 -0.234802 1.16502
                  }
                }
              }
              JOINT lMid1
              {
                OFFSET 8.24714 1.18213 3.41376
                CHANNELS 3 Zrotation Xrotation Yrotation
                JOINT lMid2
                {
                  OFFSET 3.10165 -0.590103 1.0647
                  CHANNELS 3 Zrotation Xrotation Yrotation
                  End Site
                  {
                    OFFSET 2.48547 -0.328903 0.83742
                  }
                }
              }
              JOINT lRing1
              {
                OFFSET 8.82822 0.546677 1.51678
                CHANNELS 3 Zrotation Xrotation Yrotation
                JOINT lRing2
                {
                  OFFSET 2.60934 -0.819778 -0.0198488
                  CHANNELS 3 Zrotation Xrotation Yrotation
                  End Site
                  {
                    OFFSET 2.33842 -0.294052 0.168128
                  }
                }
              }
              JOINT lPinky1
              {
                OFFSET 8.27202 -0.0477905 -0.4584
                CHANNELS 3 Zrotation Xrotation Yrotation
                JOINT lPinky2
                {
                  OFFSET 1.82734 -0.647385 -0.700984
                  CHANNELS 3 Zrotation Xrotation Yrotation
                  End Site
                  {
                    OFFSET 1.69225 -0.51767 -0.607171
                  }
                }
              }
            }
          }
        }
      }
    }
  }
  JOINT rButtock
  {
    OFFSET -8.77824 4.35084 1.2192
    CHANNELS 3 Zrotation Xrotation Yrotation
    JOINT rThigh
    {
      OFFSET 0 -1.70687 -2.19456
      CHANNELS 3 Zrotation Xrotation Yrotation
      JOINT rShin
      {
        OFFSET 0 -36.8199 0.73152
        CHANNELS 3 Zrotation Xrotation Yrotation
        JOINT rFoot
        {
          OFFSET 0.73152 -45.1104 -5.12064
          CHANNELS 3 Zrotation Xrotation Yrotation
          End Site
          {
            OFFSET -1.1221 -3.69964 12.103
          }
        }
      }
    }
  }
  JOINT lButtock
  {
    OFFSET 8.77824 4.35084 1.2192
    CHANNELS 3 Zrotation Xrotation Yrotation
    JOINT lThigh
    {
      OFFSET 0 -1.70687 -2.19456
      CHANNELS 3 Zrotation Xrotation Yrotation
      JOINT lShin
      {
        OFFSET 0 -36.8199 0.73152
        CHANNELS 3 Zrotation Xrotation Yrotation
        JOINT lFoot
        {
          OFFSET -0.73152 -45.1104 -5.12064
          CHANNELS 3 Zrotation Xrotation Yrotation
          End Site
          {
            OFFSET 1.1221 -3.69964 12.103
          }
        }
      }
    }
  }
}
MOTION
Frames:	4
Frame Time:	0.03333
1.803697359553338 31.936854653239497 10.55093042482854 -19.185487747192383 -25.895992279052734 12.557811737060547 13.642867088317871 9.14351749420166 12.04489803314209 -0.9916775822639465 -8.446978569030762 3.1158902645111084 -2.142191171646118 14.303732872009277 1.6861547231674194 5.98398494720459 -23.275381088256836 5.054926872253418 -0.31880468130111694 -0.11763945966959 -0.6854729652404785 -0.026978006586432457 -0.2550249695777893 0.3674801290035248 -0.00022392180107999593 0.18629424273967743 -0.1877865493297577 72.08369445800781 38.82693099975586 -11.190194129943848 -19.369606018066406 -12.476996421813965 37.87998962402344 -0.26645636558532715 13.78329849243164 2.654416084289551 0.09322422742843628 0.464529424905777 -0.3951645791530609 -0.46995216608047485 0.018901340663433075 0.16518859565258026 0.08604057878255844 -0.20507659018039703 -0.36418643593788147 8.37885856628418 5.398828983306885 0.4425635039806366 0.22983679175376892 -0.16511763632297516 -0.7764531373977661 2.288370132446289 1.0458747148513794 -0.5954187512397766 0.5445886254310608 0.33584627509117126 0.03559417277574539 10.636462211608887 0.6851348876953125 0.12456252425909042 -0.26714423298835754 0.3298773467540741 0.2667851150035858 2.408155918121338 -1.0038020610809326 0.16614654660224915 0.08846388757228851 0.003970075864344835 0.09982679784297943 -72.18968963623047 23.399169921875 -7.66750431060791 11.010798454284668 -4.190580368041992 -20.12176513671875 0.33333709836006165 16.84360122680664 -3.1491613388061523 0.5548009276390076 0.11803976446390152 -0.4501500427722931 0.33804523944854736 -0.4825950860977173 -0.0075920866802334785 -0.4631698727607727 -0.09184791147708893 0.6850345730781555 -7.997609615325928 5.298356056213379 -0.5215684175491333 -0.18260562419891357 -0.09901420772075653 -0.310625821352005 -3.243124008178711 0.9928650856018066 -0.22818692028522491 -0.13169042766094208 -0.08977146446704865 -0.02716916613280773 -10.122797012329102 0.9612830281257629 -0.2806395888328552 -0.5004679560661316 -0.13161945343017578 -0.6670621037483215 -2.0665712356567383 -0.5474414229393005 -0.02662917599081993 -0.06591949611902237 -0.5449854135513306 -0.1685180515050888 -1.5718934535980225 6.504143714904785 -5.436323165893555 0.5031635761260986 41.204933166503906 1.8701740503311157 -10.660859107971191 -19.325794219970703 -29.642169952392578 -0.10098318010568619 0.10724887996912003 -0.15483146905899048 74.65281677246094 -61.35432815551758 61.39947509765625 5.752984046936035 77.4606704711914 -5.911337375640869 -0.0729222521185875 -2.7038779258728027 -0.7838695645332336
1.7785468954820587 31.94657059733384 10.727011607733983 -18.959199905395508 -25.863435745239258 12.558025360107422 13.330400466918945 9.211256980895996 12.070496559143066 -1.0064181089401245 -8.437663078308105 3.133394241333008 -2.148181200027466 14.325530052185059 1.647066354751587 6.005151748657227 -23.356412887573242 4.993092060089111 -0.28572481870651245 -0.11132239550352097 -0.6766840815544128 -0.015587804839015007 -0.2738117575645447 0.3645954132080078 -0.0018810967449098825 0.18398235738277435 -0.17915396392345428 71.9799575805664 38.82255172729492 -10.862910270690918 -19.319700241088867 -12.387656211853027 37.76304626464844 -0.24462705850601196 13.72464370727539 2.6519601345062256 0.08926388621330261 0.44806843996047974 -0.3896789252758026 -0.47671228647232056 0.03448653966188431 0.1716168224811554 0.07662924379110336 -0.22151176631450653 -0.36365199089050293 8.383089065551758 5.393605709075928 0.4702898859977722 0.23965652287006378 -0.16368570923805237 -0.7762659788131714 2.2689316272735596 1.0550932884216309 -0.5756760835647583 0.5452609062194824 0.33574992418289185 0.04383037984371185 10.636401176452637 0.6616664528846741 0.12584146857261658 -0.2688078284263611 0.32228636741638184 0.2918511927127838 2.4406068325042725 -1.0077497959136963 0.1566615253686905 0.08447610586881638 0.003265555715188384 0.10868281126022339 -72.19641876220703 23.33894920349121 -7.478601455688477 10.943974494934082 -4.064108848571777 -19.95845603942871 0.32712575793266296 17.126283645629883 -3.181304693222046 0.5760136246681213 0.1242259293794632 -0.4423133134841919 0.3395083546638489 -0.5111470222473145 -0.014538884162902832 -0.45821917057037354 -0.10576343536376953 0.6833064556121826 -7.955323219299316 5.30500602722168 -0.5210282802581787 -0.18428108096122742 -0.07073269784450531 -0.29128217697143555 -3.2541897296905518 0.9969513416290283 -0.22940176725387573 -0.108106330037117 -0.08584471046924591 -0.022867027670145035 -10.12024211883545 0.9804672002792358 -0.2746799886226654 -0.522854208946228 -0.10900518298149109 -0.6754522323608398 -2.057927370071411 -0.520021378993988 -0.026193197816610336 -0.06257341802120209 -0.5536436438560486 -0.19729721546173096 -1.5360983610153198 6.041950702667236 -5.221212387084961 0.5182353258132935 41.70424270629883 1.8499927520751953 -10.543124198913574 -19.180500030517578 -29.415494918823242 -0.11318540573120117 0.10081493854522705 -0.1758979707956314 73.62495422363281 -61.55375671386719 60.350433349609375 5.505434989929199 76.95030975341797 -5.682547569274902 -0.05056862533092499 -2.577219247817993 -0.5079703330993652
1.7474244981986609 31.92424270893707 10.893040673171873 -18.95063018798828 -25.910287857055664 12.562914848327637 13.269309997558594 9.24368667602539 12.082784652709961 -1.0547701120376587 -8.424566268920898 3.132110118865967 -2.153395891189575 14.310247421264648 1.7078993320465088 5.999258041381836 -23.381196975708008 5.095842361450195 -0.25020918250083923 -0.13248540461063385 -0.671626091003418 -0.0211570393294096 -0.2925240397453308 0.3618045449256897 -0.019388264045119286 0.18615935742855072 -0.17615637183189392 71.99264526367188 38.86103820800781 -10.852764129638672 -19.387758255004883 -12.509331703186035 37.88416290283203 -0.22501230239868164 13.657254219055176 2.631277084350586 0.08101782947778702 0.42746081948280334 -0.40401721000671387 -0.4715437889099121 0.03553679585456848 0.1791515052318573 0.07551714032888412 -0.21743427217006683 -0.3890148997306824 8.38973331451416 5.385644435882568 0.4747835397720337 0.23682455718517303 -0.16457702219486237 -0.7581552267074585 2.2621188163757324 1.0510971546173096 -0.578544020652771 0.5279302597045898 0.34019744396209717 0.04337463527917862 10.633599281311035 0.6636938452720642 0.12130486965179443 -0.2434474527835846 0.3405962884426117 0.2915589213371277 2.459059953689575 -1.0017883777618408 0.13913904130458832 0.07813325524330139 0.013308166526257992 0.1184157058596611 -72.12491607666016 23.262332916259766 -7.661594390869141 10.92602252960205 -4.073887348175049 -19.90389633178711 0.3392406702041626 17.2510986328125 -3.1853461265563965 0.5834836363792419 0.13956144452095032 -0.44350308179855347 0.3447873294353485 -0.5065950751304626 -0.008545048534870148 -0.4814317226409912 -0.12115500867366791 0.6751221418380737 -7.933508396148682 5.322654724121094 -0.5148531794548035 -0.19609852135181427 -0.07581251114606857 -0.31408607959747314 -3.2654316425323486 0.9881076216697693 -0.2314692884683609 -0.07920052856206894 -0.07220979779958725 -0.026737069711089134 -10.117504119873047 0.9673853516578674 -0.2591383159160614 -0.5222793221473694 -0.1040237545967102 -0.6738025546073914 -2.0489916801452637 -0.4868651330471039 -0.021261315792798996 -0.06970535218715668 -0.5646450519561768 -0.2173754870891571 -1.4886155128479004 5.949334621429443 -5.13753080368042 0.5121250152587891 41.90993118286133 1.8523532152175903 -10.506643295288086 -19.218490600585938 -29.395278930664062 -0.11478081345558167 0.10441958159208298 -0.17686815559864044 73.74519348144531 -61.751251220703125 60.4543571472168 5.610387802124023 77.06354522705078 -5.791249752044678 -0.12179547548294067 -2.450246572494507 -0.5616815090179443
1.721721002248022 31.895084631370285 11.058647547541693 -19.070241928100586 -25.932767868041992 12.56225872039795 13.383711814880371 9.243206977844238 12.042393684387207 -1.0871376991271973 -8.415114402770996 3.1090941429138184 -2.167861223220825 14.307642936706543 1.7562991380691528 5.992065906524658 -23.379785537719727 5.186009883880615 -0.2391200065612793 -0.16898392140865326 -0.6726423501968384 -0.03934211656451225 -0.29599153995513916 0.3678548336029053 -0.028045382350683212 0.18614129722118378 -0.17128843069076538 72.0079574584961 38.909217834472656 -10.955334663391113 -19.483736038208008 -12.684333801269531 38.092254638671875 -0.2126234471797943 13.700920104980469 2.634387969970703 0.08304206281900406 0.41935428977012634 -0.4190584123134613 -0.45959919691085815 0.02382919378578663 0.17780348658561707 0.08225269615650177 -0.20124508440494537 -0.4264131188392639 8.40259838104248 5.387174606323242 0.468397319316864 0.2391040176153183 -0.16891402006149292 -0.7327521443367004 2.2629923820495605 1.0372717380523682 -0.6007846593856812 0.5149241089820862 0.3500864505767822 0.04474354162812233 10.641824722290039 0.674650251865387 0.11471442133188248 -0.20474950969219208 0.3605598509311676 0.2791577875614166 2.4555978775024414 -1.0115846395492554 0.13074113428592682 0.07772892713546753 0.03094898909330368 0.1169663667678833 -72.06476593017578 23.28354835510254 -7.962841510772705 10.96352767944336 -4.175531387329102 -19.949493408203125 0.3729981482028961 17.169076919555664 -3.158658027648926 0.583125650882721 0.14466869831085205 -0.45667436718940735 0.3503802418708801 -0.48511752486228943 -0.00020693081023637205 -0.5020348429679871 -0.1328548938035965 0.6723191738128662 -7.947338581085205 5.343184947967529 -0.5053077340126038 -0.20216083526611328 -0.09109032899141312 -0.3511306047439575 -3.2647616863250732 0.9731873869895935 -0.22821155190467834 -0.07328365743160248 -0.06497827917337418 -0.04469494894146919 -10.113958358764648 0.9396894574165344 -0.24404200911521912 -0.5105878710746765 -0.12256676703691483 -0.660247266292572 -2.0533316135406494 -0.46642613410949707 -0.003946390002965927 -0.07434201240539551 -0.5581662058830261 -0.21903960406780243 -1.4605149030685425 6.119012355804443 -5.186673164367676 0.5061234831809998 41.831748962402344 1.8615525960922241 -10.550159454345703 -19.340137481689453 -29.51658821105957 -0.1074511855840683 0.11389032006263733 -0.16599740087985992 74.53771209716797 -61.87465286254883 61.25723648071289 5.866881847381592 77.54708862304688 -6.042510032653809 -0.196040078997612 -2.3743441104888916 -0.7668541669845581
